Patient4_TMGait_0pt5_01_right_19_GRF.mot
version=1
nRows=72
nColumns=19
inDegrees=no
endheader
time	F1x	F1y	F1z	M1x	M1y	M1z	F2x	F2y	F2z	M2x	M2y	M2z	EC1x	EC1y	EC1z	EC2x	EC2y	EC2z
24.74	-0.50732	736.96	64.5022	-262.8724	-54.3075	647.4269	-1.0916	2.5949	-8.4266	3.3294	5.536	0.9507	-0.0592	0.0182	-0.0073	-0.0462	0.0165	0.9585
24.7539	1.28	738.198	61.8919	-262.6265	-50.8589	645.8494	-0.72292	2.2486	-5.8153	2.497	3.7832	1.0782	-0.0592	0.0182	-0.0073	-0.0462	0.0165	0.9585
24.7679	3.5075	740.4673	59.3361	-262.8962	-47.2849	644.2309	-0.44585	2.0159	-3.5566	1.7942	2.3076	1.2571	-0.0592	0.0182	-0.0073	-0.0462	0.0165	0.9585
24.7818	6.1322	743.8512	56.9924	-263.777	-43.7698	642.7193	-0.26953	1.8962	-1.8059	1.2667	1.1932	1.4624	-0.0592	0.0182	-0.0073	-0.0462	0.0165	0.9585
24.7957	9.1202	748.1797	54.9164	-265.2273	-40.3918	641.2869	-0.17107	1.8645	-0.57937	0.91204	0.43929	1.652	-0.0592	0.0182	-0.0073	-0.0462	0.0165	0.9585
24.8096	12.4329	753.0526	53.1358	-267.0841	-37.1948	639.7545	-0.14361	1.8945	0.19352	0.70279	-0.0026564	1.8166	-0.0592	0.0182	-0.0073	-0.0462	0.0165	0.9585
24.8236	16.0563	757.9129	51.6544	-269.104	-34.1836	637.8219	-0.1756	1.9425	0.6117	0.59551	-0.20047	1.9335	-0.0592	0.0182	-0.0073	-0.0462	0.0165	0.9585
24.8375	19.9814	762.1911	50.489	-271.0225	-31.3658	635.1772	-0.24985	1.948	0.78324	0.53926	-0.23483	1.9658	-0.0592	0.0182	-0.0073	-0.0462	0.0165	0.9585
24.8514	24.166	765.433	49.6622	-272.6114	-28.7588	631.6046	-0.36756	1.8497	0.79492	0.48357	-0.16546	1.881	-0.0592	0.0182	-0.0073	-0.0462	0.0165	0.9585
24.8654	28.5396	767.3701	49.2176	-273.7137	-26.4127	627.0253	-0.50948	1.5645	0.72024	0.37644	-0.047286	1.6027	-0.0592	0.0182	-0.0073	-0.0462	0.0165	0.9585
24.8793	32.9627	767.9878	49.1841	-274.2706	-24.3896	621.5556	-0.66833	1.0143	0.60723	0.17077	0.086589	1.0552	-0.0592	0.0182	-0.0073	-0.0462	0.0165	0.9585
24.8932	37.2669	767.4962	49.5703	-274.3174	-22.752	615.4725	-0.82422	0.1244	0.48837	-0.1721	0.20871	0.16044	-0.0592	0.0182	-0.0073	-0.0462	0.0165	0.9585
24.9071	41.2546	766.2485	50.3492	-273.9534	-21.5448	609.1527	-0.94017	-1.1517	0.38149	-0.67489	0.29854	-1.1239	-0.0592	0.0182	-0.0073	-0.0462	0.0165	0.9585
24.9211	44.7288	764.5913	51.4633	-273.2876	-20.7904	602.9464	-0.97764	-2.7904	0.30956	-1.3308	0.32467	-2.769	-0.0592	0.0182	-0.0073	-0.0462	0.0165	0.9585
24.935	47.544	762.716	52.8315	-272.3854	-20.4769	597.0462	-0.8605	-4.6696	0.29403	-2.0885	0.24131	-4.6615	-0.0592	0.0182	-0.0073	-0.0462	0.0165	0.9585
24.9489	49.6237	760.6039	54.3733	-271.2462	-20.5695	591.4531	-0.50122	-6.4935	0.35712	-2.8241	-0.007775	-6.507	-0.0592	0.0182	-0.0073	-0.0462	0.0165	0.9585
24.9629	51.0268	758.048	56.0118	-269.8133	-20.9908	585.9665	0.20695	-7.727	0.51731	-3.3148	-0.4829	-7.7769	-0.0592	0.0182	-0.0073	-0.0462	0.0165	0.9585
24.9768	51.911	754.7583	57.6748	-268.0089	-21.6312	580.296	1.3747	-7.5351	0.78714	-3.2119	-1.2414	-7.6415	-0.0592	0.0182	-0.0073	-0.0462	0.0165	0.9585
24.9907	52.4891	750.4905	59.2884	-265.7774	-22.3603	574.1749	3.0759	-4.7265	1.1684	-2.0217	-2.3146	-4.9146	-0.0592	0.0182	-0.0073	-0.0462	0.0165	0.9585
25.0046	52.987	745.1013	60.7779	-263.1015	-23.0429	567.4056	5.3235	2.2161	1.6478	0.8821	-3.6846	1.9115	-0.0592	0.0182	-0.0073	-0.0462	0.0165	0.9585
25.0186	53.5927	738.5518	62.0567	-259.9998	-23.5468	559.8979	7.9822	15.0386	2.1799	6.2138	-5.2411	14.5849	-0.0592	0.0182	-0.0073	-0.0462	0.0165	0.9585
25.0325	54.4582	730.8055	62.9927	-256.4922	-23.7165	551.5803	10.7026	35.4359	2.6809	14.6619	-6.7494	34.8172	-0.0592	0.0182	-0.0073	-0.0462	0.0165	0.9585
25.0464	55.6412	721.6929	63.4199	-252.5547	-23.4177	542.3303	12.8198	64.5824	2.9917	26.6945	-7.7757	63.8169	-0.0592	0.0182	-0.0073	-0.0462	0.0165	0.9585
25.0604	57.0829	710.7796	63.1326	-248.074	-22.5324	531.8781	13.2203	102.489	2.8992	42.2917	-7.6581	101.6609	-0.0592	0.0182	-0.0073	-0.0462	0.0165	0.9585
25.0743	58.6063	697.3018	61.9346	-242.8117	-20.9924	519.7148	10.7284	147.2839	2.1365	60.6563	-5.6684	146.5679	-0.0592	0.0182	-0.0073	-0.0462	0.0165	0.9585
25.0882	59.9288	680.1998	59.6612	-236.4171	-18.7912	505.1205	5.1542	195.1074	0.48495	80.1749	-1.542	194.7487	-0.0592	0.0182	-0.0073	-0.0462	0.0165	0.9585
25.1021	60.7303	658.235	56.2559	-228.4697	-16.0193	487.2226	-2.4308	240.7483	-1.9806	98.7198	4.179	240.9111	-0.0592	0.0182	-0.0073	-0.0462	0.0165	0.9585
25.1161	60.7149	630.2306	51.8148	-218.5567	-12.8699	465.1861	-10.5649	279.9276	-4.883	114.5789	10.4932	280.5533	-0.0592	0.0182	-0.0073	-0.0462	0.0165	0.9585
25.13	59.6852	595.4016	46.5646	-206.3858	-9.5839	438.4528	-18.1739	311.6949	-7.7443	127.3904	16.472	312.5297	-0.0592	0.0182	-0.0073	-0.0462	0.0165	0.9585
25.1439	57.5759	553.5499	40.8388	-191.856	-6.4188	406.8758	-24.6975	338.0625	-10.2218	137.9895	21.5591	338.7324	-0.0592	0.0182	-0.0073	-0.0462	0.0165	0.9585
25.1579	54.3841	505.1587	34.9426	-175.1004	-3.5719	370.8006	-29.9335	362.523	-12.2241	147.7933	25.5982	362.5828	-0.0592	0.0182	-0.0073	-0.0462	0.0165	0.9585
25.1718	50.1089	451.34	29.1329	-156.4771	-1.204	331.0198	-33.8449	388.6611	-13.938	158.237	28.7818	387.5679	-0.0592	0.0182	-0.0073	-0.0462	0.0165	0.9585
25.1857	44.7511	393.7431	23.6283	-136.5355	0.55129	288.7143	-36.5987	419.2781	-15.7764	170.4128	31.5966	416.4241	-0.0592	0.0182	-0.0073	-0.0462	0.0165	0.9585
25.1996	38.3547	334.3913	18.6391	-115.9631	1.5734	245.3224	-38.5487	455.9451	-18.2296	184.8973	34.6675	450.713	-0.0592	0.0182	-0.0073	-0.0462	0.0165	0.9585
25.2136	31.0933	275.5723	14.3181	-95.5506	1.8223	202.4548	-40.1271	498.8319	-21.6923	201.7044	38.5448	490.6319	-0.0592	0.0182	-0.0073	-0.0462	0.0165	0.9585
25.2275	23.3288	219.6619	10.7406	-76.1314	1.3779	161.774	-41.7834	546.8543	-26.3203	220.359	43.5393	535.1803	-0.0592	0.0182	-0.0073	-0.0462	0.0165	0.9585
25.2414	15.6103	168.7961	7.9192	-58.4613	0.43131	124.7518	-43.7781	597.9686	-31.9099	240.0332	49.5428	582.4106	-0.0592	0.0182	-0.0073	-0.0462	0.0165	0.9585
25.2554	8.5583	124.5234	5.7915	-43.0883	-0.74336	92.4591	-46.1274	649.5109	-37.9681	259.6788	56.0735	629.7774	-0.0592	0.0182	-0.0073	-0.0462	0.0165	0.9585
25.2693	2.7075	87.5847	4.2502	-30.2736	-1.8728	65.4079	-48.6237	698.4541	-43.874	278.1222	62.4423	674.3792	-0.0592	0.0182	-0.0073	-0.0462	0.0165	0.9585
25.2832	-1.6059	58.0022	3.1522	-20.0223	-2.7335	43.6311	-50.9299	741.7075	-49.1101	294.1705	68.0141	713.2638	-0.0592	0.0182	-0.0073	-0.0462	0.0165	0.9585
25.2971	-4.2477	35.3076	2.3263	-12.168	-3.1569	26.8331	-52.7102	776.5308	-53.3338	306.7637	72.3278	743.8618	-0.0592	0.0182	-0.0073	-0.0462	0.0165	0.9585
25.3111	-5.275	18.7529	1.627	-6.4474	-3.066	14.5017	-53.6728	800.9246	-56.387	315.1324	75.1257	764.3212	-0.0592	0.0182	-0.0073	-0.0462	0.0165	0.9585
25.325	-4.968	7.4287	0.98693	-2.5412	-2.5204	6.0009	-53.6224	813.9683	-58.2682	318.9306	76.344	773.8411	-0.0592	0.0182	-0.0073	-0.0462	0.0165	0.9585
25.3389	-3.8922	0.41085	0.43373	-0.12513	-1.7477	0.67774	-52.4706	815.9766	-59.0892	318.2978	76.0707	772.7996	-0.0592	0.0182	-0.0073	-0.0462	0.0165	0.9585
25.3529	-2.5488	-3.3104	0.011787	1.1527	-0.9674	-2.1815	-50.2407	808.4598	-59.06	313.8433	74.5307	762.6882	-0.0592	0.0182	-0.0073	-0.0462	0.0165	0.9585
25.3668	-1.2603	-4.7287	-0.29162	1.6389	-0.28262	-3.289	-47.1107	793.9383	-58.4515	306.5711	72.063	745.9432	-0.0592	0.0182	-0.0073	-0.0462	0.0165	0.9585
25.3807	-0.17219	-4.7108	-0.4817	1.6333	0.25199	-3.3085	-43.369	775.5134	-57.5757	297.7147	69.0887	725.5213	-0.0592	0.0182	-0.0073	-0.0462	0.0165	0.9585
25.3946	0.64545	-3.9143	-0.59477	1.361	0.63883	-2.7279	-39.3811	756.3584	-56.7185	288.5383	66.0317	704.4284	-0.0592	0.0182	-0.0073	-0.0462	0.0165	0.9585
25.4086	1.2094	-2.8088	-0.64837	0.98003	0.89196	-1.8933	-35.5112	739.2836	-56.1061	280.1667	63.2587	685.2944	-0.0592	0.0182	-0.0073	-0.0462	0.0165	0.9585
25.4225	1.5623	-1.6864	-0.66859	0.59198	1.0441	-1.0227	-32.0366	726.4219	-55.8672	273.463	61.0099	670.0776	-0.0592	0.0182	-0.0073	-0.0462	0.0165	0.9585
25.4364	1.7378	-0.70382	-0.66658	0.25058	1.1122	-0.23241	-29.1239	719.0606	-56.0436	268.9605	59.3996	659.9187	-0.0592	0.0182	-0.0073	-0.0462	0.0165	0.9585
25.4504	1.8003	0.066565	-0.65459	-0.020827	1.1225	0.40233	-26.8302	717.6185	-56.5822	266.8565	58.4136	655.131	-0.0592	0.0182	-0.0073	-0.0462	0.0165	0.9585
25.4643	1.7842	0.63259	-0.63969	-0.22328	1.0969	0.8845	-25.1261	721.7622	-57.3666	267.0565	57.9419	655.3377	-0.0592	0.0182	-0.0073	-0.0462	0.0165	0.9585
25.4782	1.7302	1.0208	-0.61962	-0.36598	1.0523	1.2202	-23.9093	730.5603	-58.2306	269.2321	57.7993	659.6239	-0.0592	0.0182	-0.0073	-0.0462	0.0165	0.9585
25.4921	1.6598	1.2587	-0.5972	-0.4605	1.0053	1.4214	-23.0281	742.6453	-58.995	272.8828	57.7701	666.7072	-0.0592	0.0182	-0.0073	-0.0462	0.0165	0.9585
25.5061	1.573	1.3763	-0.56816	-0.51642	0.95382	1.5186	-22.3072	756.405	-59.4795	277.4072	57.6282	675.1164	-0.0592	0.0182	-0.0073	-0.0462	0.0165	0.9585
25.52	1.4842	1.3749	-0.53791	-0.53399	0.90556	1.4989	-21.5661	770.1664	-59.5374	282.1697	57.1724	683.3539	-0.0592	0.0182	-0.0073	-0.0462	0.0165	0.9585
25.5339	1.38	1.239	-0.49844	-0.50086	0.84831	1.3524	-20.6555	782.3628	-59.0854	286.5583	56.2651	690.0535	-0.0592	0.0182	-0.0073	-0.0462	0.0165	0.9585
25.5479	1.2566	0.92668	-0.46096	-0.39593	0.78685	1.0278	-19.4631	791.6512	-58.1441	290.0293	54.8702	694.0697	-0.0592	0.0182	-0.0073	-0.0462	0.0165	0.9585
25.5618	1.1134	0.36903	-0.41813	-0.19086	0.70954	0.45014	-17.9376	796.985	-56.8197	292.1407	53.0434	694.5443	-0.0592	0.0182	-0.0073	-0.0462	0.0165	0.9585
25.5757	0.95307	-0.50483	-0.38153	0.14054	0.62641	-0.44243	-16.0643	797.6839	-55.2633	292.5898	50.8921	690.9494	-0.0592	0.0182	-0.0073	-0.0462	0.0165	0.9585
25.5896	0.80806	-1.7656	-0.34536	0.62051	0.5416	-1.7226	-13.8485	793.4849	-53.6354	291.2406	48.5412	683.121	-0.0592	0.0182	-0.0073	-0.0462	0.0165	0.9585
25.6036	0.71631	-3.4229	-0.31692	1.2495	0.47726	-3.3954	-11.3065	784.5695	-52.0858	288.1366	46.1131	671.2624	-0.0592	0.0182	-0.0073	-0.0462	0.0165	0.9585
25.6175	0.7441	-5.3918	-0.30467	1.9942	0.4674	-5.3774	-8.4523	771.542	-50.7416	283.497	43.721	655.9058	-0.0592	0.0182	-0.0073	-0.0462	0.0165	0.9585
25.6314	0.98358	-7.4395	-0.32363	2.7654	0.56168	-7.4352	-5.3071	755.4435	-49.6948	277.7189	41.4589	637.9372	-0.0592	0.0182	-0.0073	-0.0462	0.0165	0.9585
25.6454	1.5421	-9.0901	-0.39839	3.3851	0.82609	-9.0915	-1.8901	737.6871	-48.9885	271.3518	39.3887	618.5347	-0.0592	0.0182	-0.0073	-0.0462	0.0165	0.9585
25.6593	2.5539	-9.5766	-0.54908	3.5652	1.3325	-9.5973	1.7766	719.9137	-48.6103	265.0367	37.5256	599.0505	-0.0592	0.0182	-0.0073	-0.0462	0.0165	0.9585
25.6732	4.1428	-7.7744	-0.80649	2.8824	2.158	-7.8447	5.6569	703.7932	-48.4978	259.423	35.841	580.857	-0.0592	0.0182	-0.0073	-0.0462	0.0165	0.9585
25.6871	6.3921	-2.1945	-1.191	0.77478	3.3563	-2.3579	9.7194	690.7579	-48.5663	255.0657	34.2823	565.1272	-0.0592	0.0182	-0.0073	-0.0462	0.0165	0.9585
25.7011	9.2885	8.9358	-1.7195	-3.429	4.9405	8.6258	13.9043	681.7591	-48.7146	252.3268	32.7834	552.6679	-0.0592	0.0182	-0.0073	-0.0462	0.0165	0.9585
25.715	12.6181	27.4689	-2.3847	-10.4293	6.8192	26.962	18.1304	677.0554	-48.8352	251.2935	31.2767	543.749	-0.0592	0.0182	-0.0073	-0.0462	0.0165	0.9585
25.7289	15.8783	54.907	-3.1435	-20.7951	8.7523	54.1469	22.2815	676.0979	-48.8117	251.732	29.7008	538.0217	-0.0592	0.0182	-0.0073	-0.0462	0.0165	0.9585
